<svg xmlns="http://www.w3.org/2000/svg" width="48.33" height="48.336" viewBox="0 0 48.33 48.336"><g transform="translate(0.01 0.03)"><g transform="translate(-0.01 -0.03)"><g transform="translate(0 0)"><path d="M20.36,48.306a1.543,1.543,0,0,1-1.013-1.761c.046-.657,0-1.322.013-1.984a.555.555,0,0,0-.475-.637,19.5,19.5,0,0,1-5.046-2.086.546.546,0,0,0-.781.115c-.534.557-1.083,1.1-1.636,1.637a1.228,1.228,0,0,1-1.912.014Q7.06,41.18,4.635,38.73a1.2,1.2,0,0,1,.014-1.87c.526-.542,1.054-1.085,1.605-1.6a.615.615,0,0,0,.138-.895A18.986,18.986,0,0,1,4.344,29.4a.578.578,0,0,0-.662-.506c-.787.019-1.574.012-2.362,0A1.187,1.187,0,0,1,0,27.62q-.026-3.5,0-6.991A1.186,1.186,0,0,1,1.31,19.342c.787-.012,1.575-.017,2.362,0a.577.577,0,0,0,.669-.5,19.12,19.12,0,0,1,2.067-5,.569.569,0,0,0-.117-.82c-.558-.532-1.1-1.082-1.637-1.636a1.213,1.213,0,0,1,0-1.9Q7.07,7.053,9.5,4.639a1.214,1.214,0,0,1,1.9-.006c.554.538,1.1,1.08,1.636,1.638a.569.569,0,0,0,.82.119,19.164,19.164,0,0,1,5-2.068.578.578,0,0,0,.5-.669c-.017-.787-.012-1.575,0-2.362A1.192,1.192,0,0,1,20.648-.017q3.5-.026,6.991,0A1.186,1.186,0,0,1,28.916,1.3c.01.8.014,1.605,0,2.409a.531.531,0,0,0,.46.6,19.476,19.476,0,0,1,5.089,2.1.522.522,0,0,0,.741-.119c.537-.554,1.085-1.1,1.637-1.637a1.237,1.237,0,0,1,1.946,0q2.434,2.41,4.843,4.842a1.208,1.208,0,0,1,0,1.871c-.548.565-1.1,1.125-1.67,1.67a.545.545,0,0,0-.112.781,19.448,19.448,0,0,1,2.084,5.046.554.554,0,0,0,.639.473c.676-.016,1.356.03,2.03-.012a1.507,1.507,0,0,1,1.713,1.011V27.8A1.455,1.455,0,0,1,46.6,28.907c-.673-.046-1.354,0-2.03-.013a.553.553,0,0,0-.63.483,19.463,19.463,0,0,1-2.086,5.043.546.546,0,0,0,.122.78c.555.535,1.1,1.083,1.637,1.634a1.216,1.216,0,0,1,.019,1.906q-2.427,2.447-4.875,4.873a1.206,1.206,0,0,1-1.87,0c-.565-.548-1.125-1.1-1.669-1.67a.545.545,0,0,0-.781-.106,19.365,19.365,0,0,1-5.045,2.083.554.554,0,0,0-.473.639c.016.676-.03,1.355.012,2.03A1.506,1.506,0,0,1,27.917,48.3H20.36Zm3.8-46.02c-.614,0-1.228-.006-1.841,0-.593.007-.654.069-.66.65-.007.693,0,1.385-.009,2.079a1.163,1.163,0,0,1-.991,1.25c-.426.114-.859.2-1.285.309A17.957,17.957,0,0,0,14.183,8.9a1.287,1.287,0,0,1-1.963-.2c-.469-.466-.945-.925-1.4-1.405-.246-.26-.44-.285-.7-.017Q8.727,8.7,7.31,10.085c-.289.282-.245.482.026.738.514.488,1.011.993,1.5,1.5a1.172,1.172,0,0,1,.181,1.663,19.1,19.1,0,0,0-2.74,6.638,1.129,1.129,0,0,1-1.274,1.01c-.708.012-1.417.016-2.125,0-.391-.007-.584.138-.581.547q.011,1.935,0,3.872c0,.4.178.561.575.552.676-.014,1.354-.006,2.031,0,.86.009,1.23.275,1.4,1.1a18.8,18.8,0,0,0,2.687,6.508,1.213,1.213,0,0,1-.216,1.772c-.5.5-.994,1.01-1.5,1.5a.376.376,0,0,0,0,.633q1.443,1.428,2.873,2.871a.376.376,0,0,0,.633-.009c.5-.521,1.018-1.03,1.536-1.536a1.188,1.188,0,0,1,1.7-.206,18.948,18.948,0,0,0,6.592,2.727c.77.161,1.036.539,1.046,1.344.009.708.012,1.417,0,2.125,0,.358.155.519.509.519q1.959,0,3.92,0c.373,0,.545-.154.539-.539-.012-.724-.007-1.449,0-2.172a1.13,1.13,0,0,1,1.016-1.27,18.989,18.989,0,0,0,6.637-2.74,1.169,1.169,0,0,1,1.661.188c.5.482,1,.962,1.466,1.473.315.345.535.3.841-.012.875-.906,1.768-1.8,2.67-2.673.3-.291.341-.5.012-.808-.521-.479-1.013-.991-1.506-1.5a1.155,1.155,0,0,1-.183-1.623,19.1,19.1,0,0,0,2.746-6.636,1.144,1.144,0,0,1,1.3-1.036c.708-.01,1.417-.013,2.125,0,.368.006.56-.132.558-.519q-.006-1.959,0-3.92c0-.378-.17-.537-.547-.531-.692.012-1.385.006-2.079,0-.831-.009-1.207-.278-1.372-1.072a18.7,18.7,0,0,0-2.709-6.548,1.189,1.189,0,0,1,.178-1.7c.5-.519,1.016-1.034,1.538-1.535a.394.394,0,0,0,.007-.669Q39.562,8.7,38.155,7.273a.393.393,0,0,0-.667,0c-.489.512-1,1.008-1.5,1.5a1.193,1.193,0,0,1-1.733.211,18.9,18.9,0,0,0-6.6-2.719,1.147,1.147,0,0,1-1.028-1.309c-.009-.614,0-1.228,0-1.841,0-.808-.024-.831-.81-.836-.551,0-1.1,0-1.653,0Z" transform="translate(0.01 0.03)" fill="#fff"/><path d="M81.96,67.52A14.436,14.436,0,1,1,67.51,81.9,14.4,14.4,0,0,1,81.96,67.52ZM77.105,93.025c.024-.278.055-.46.055-.642.006-.85-.037-1.7.016-2.549a1.714,1.714,0,0,0-.7-1.561A8.33,8.33,0,0,1,78.791,74.2c1.161-.473,1.886.032,1.889,1.283,0,1.589.012,3.18,0,4.77,0,.41.158.574.551.57.456-.006.913-.013,1.369,0s.629-.177.621-.647c-.023-1.574-.012-3.149-.007-4.722,0-1.217.728-1.712,1.87-1.266a8.042,8.042,0,0,1,3.648,2.822,8.32,8.32,0,0,1-1.541,11.472,1.079,1.079,0,0,0-.467.954c.026.959.006,1.92.009,2.881,0,.748.066.787.735.447.085-.043.168-.086.25-.132A12.142,12.142,0,1,0,69.831,82.044a11.811,11.811,0,0,0,6.532,10.683,6.536,6.536,0,0,0,.742.3Zm8.465-15.916c-.03.342-.06.538-.062.734,0,1.29,0,2.582-.006,3.872-.006.964-.388,1.361-1.339,1.369q-2.22.019-4.439,0c-.952-.007-1.333-.406-1.339-1.369-.007-1.306,0-2.614-.007-3.92a5.844,5.844,0,0,0-.086-.666c-.26.21-.439.334-.593.482a6.018,6.018,0,0,0,.944,9.425,1.613,1.613,0,0,1,.826,1.515c-.029,1.558.006,3.117-.016,4.675-.006.472.164.728.633.732q1.858.015,3.716,0c.469,0,.64-.259.633-.732-.022-1.449.035-2.9-.023-4.344a2.051,2.051,0,0,1,1.021-1.988,5.991,5.991,0,0,0,.755-9.282c-.155-.148-.334-.272-.62-.5Z" transform="translate(-57.797 -57.803)" fill="#fff"/></g></g></g></svg>