<?xml version="1.0" encoding="UTF-8"?>
<svg id="Layer_2" data-name="Layer 2" xmlns="http://www.w3.org/2000/svg" viewBox="0 0 82.32 88.12">
  <defs>
    <style>
      .cls-1 {
        fill: #90d4f8;
        stroke-width: 0px;
      }
    </style>
  </defs>
  <g id="Layer_1-2" data-name="Layer 1">
    <g>
      <path class="cls-1" d="M12.3,21.65c0-3.45-.02-6.71,0-9.98C12.36,4.57,16.76.07,23.81.04c11.14-.05,22.28-.05,33.42-.01,6.73.02,11.15,4.47,11.25,11.23.04,2.79.08,5.57-.02,8.36-.06,1.66.51,2.45,2.21,2.27,7.09-.76,12.05,4.57,11.62,12.07-.41,7.04-.09,14.12-.11,21.18-.03,8.86-3.91,12.44-13.26,11.79,0-2.49,0-5.03,0-7.57s0-4.96,0-7.56c.9-.28,1.96-.3,2.47-.84.74-.78,1.64-2.07,1.45-2.91-.22-.98-1.48-1.81-2.43-2.51-.4-.29-1.16-.1-1.75-.1-18.41,0-36.81-.01-55.22-.01-.6,0-1.31-.15-1.76.11-.94.55-2.32,1.23-2.47,2.05-.19,1,.39,2.81,1.17,3.21,1.63.83,1.63,1.94,1.62,3.35-.04,4.17-.01,8.33-.01,12.44-5.87,1.51-11.55-2.18-11.76-8.13-.34-9.34-.25-18.7-.02-28.04.1-4.16,3.63-7.52,7.8-8.27,1.26-.23,2.55-.3,4.29-.49ZM65.23,21.68c0-2.64,0-4.91,0-7.19,0-1.29.08-2.59-.05-3.87-.41-4.06-3.22-7.08-7.12-7.12-11.72-.13-23.45-.13-35.17-.01-3.68.04-6.73,2.73-6.98,6.15-.29,3.93-.07,7.89-.07,12.03h49.39ZM16.22,30.95c0-.47.01-.94.02-1.42-1.29-.91-2.48-2.35-3.89-2.6-1.97-.35-3.37,1.1-3.4,3.19-.03,2.08,1.32,3.58,3.3,3.29,1.41-.21,2.65-1.6,3.97-2.46ZM19.19,29.06c.12,3.14,1.28,4.73,3.28,4.33,1.24-.24,2.84-1.89,3.1-3.15.39-1.91-1.06-3.6-3.16-3.28-1.31.2-2.45,1.57-3.21,2.1Z"/>
      <path class="cls-1" d="M40.03,88.11c-7.26,0-14.52.03-21.78-.01-3.94-.02-5.18-1.19-5.21-5.18-.08-9.94-.07-19.89-.03-29.83.02-3.85,1.41-5.21,5.26-5.21,14.82-.02,29.63-.02,44.45.01,3.36,0,4.84,1.62,4.85,5.35.03,7.86,0,15.71-.01,23.57,0,2.19.09,4.38,0,6.56-.14,3.28-1.57,4.68-4.85,4.7-7.56.04-15.12.01-22.67.01,0,0,0,.02,0,.03ZM40.23,61.73s0,.01,0,.02c-6.16,0-12.32.03-18.48-.02-1.63-.01-3.1.1-3.18,2.16-.09,2.28,1.46,2.39,3.22,2.39,12.32-.03,24.63,0,36.95.01,1.58,0,3.13-.05,3.21-2.15.08-2.27-1.51-2.43-3.24-2.42-6.16.02-12.32,0-18.48,0ZM40.14,58.09h0c6.26,0,12.52-.04,18.78.01,1.69.02,3.05-.23,3.08-2.26.02-2.12-1.46-2.19-3.09-2.19-12.41.02-24.83,0-37.24-.02-1.58,0-3.09.07-3.1,2.22,0,2.15,1.48,2.25,3.08,2.24,6.16-.02,12.33,0,18.49,0ZM40.09,82.6c6.26,0,12.52-.02,18.78.01,1.61,0,3.1-.1,3.15-2.19.05-2.11-1.47-2.31-3.06-2.31-12.32,0-24.63.02-36.95.05-1.57,0-3.42-.28-3.42,2.16,0,2.59,1.94,2.28,3.62,2.28,5.96,0,11.92,0,17.88,0ZM39.94,74.37s0,.01,0,.02c6.27,0,12.54,0,18.81,0,1.54,0,3.16.07,3.21-2.11.05-2.1-1.39-2.3-3.04-2.3-12.54.02-25.07.04-37.61,0-1.67,0-2.77.43-2.74,2.26.03,1.89,1.28,2.15,2.87,2.14,6.17-.05,12.34-.02,18.51-.02Z"/>
    </g>
  </g>
</svg>