<svg xmlns="http://www.w3.org/2000/svg" width="120.267" height="63.723" viewBox="0 0 120.267 63.723"><g transform="translate(-0.01 0.001)"><g transform="translate(0.01 -0.001)"><path d="M120.277,86.021c-1.248,2.248-2.355,4.324-3.536,6.356a58.212,58.212,0,0,1-7.644,10.335,42.789,42.789,0,0,0-3.581,5.117c-.553.81-1.076,1.642-1.66,2.43a1.781,1.781,0,0,1-.757.425,1.2,1.2,0,0,1-.438.009H5.295c-.243,0-.491.009-.735,0a1.488,1.488,0,0,1-.173-2.97c.142-.027.288-.031.549-.062C3.294,99.9,1.665,92.183.01,84.357.28,84.335.5,84.3.723,84.3c7.259.128,14.522.248,21.781.407a1.54,1.54,0,0,1,1.018.518c1.093,1.323,2.138,2.687,3.169,4.063a1.147,1.147,0,0,0,1.045.5q22.593-.046,45.186-.071,15.27-.027,30.54-.084a4.766,4.766,0,0,0,1.567-.292c1.686-.6,3.386-1.177,5.015-1.908,1.992-.89,4.125-.775,6.2-1.045,1.261-.164,2.532-.239,4.032-.381ZM14.851,90.434a2.372,2.372,0,1,0,2.386,2.315A2.384,2.384,0,0,0,14.851,90.434ZM44.771,99.1a2.364,2.364,0,1,0,2.43-2.333,2.384,2.384,0,0,0-2.43,2.333ZM78.848,101.5a2.372,2.372,0,1,0-2.377-2.328,2.429,2.429,0,0,0,2.381,2.333ZM33.64,99.154a2.342,2.342,0,0,0-2.368-2.39A2.371,2.371,0,0,0,28.913,99.1a2.407,2.407,0,0,0,2.381,2.4,2.37,2.37,0,0,0,2.346-2.346Zm29.42-2.39a2.367,2.367,0,1,0-.142,4.732,2.369,2.369,0,1,0,.142-4.736Z" transform="translate(-0.01 -46.987)" fill="#fff"/><path d="M123.289.013v8.25c-.531.022-1.036.049-1.6.071v27.9h2.9v4.652H114.118V36.245h2.873V8.347H92.943v2.691a1.121,1.121,0,0,1,.429,1.678,3.363,3.363,0,0,0-.584,2.9c.314-.177.593-.336.947-.54.013.257.027.522.04.841h-1.5a4.175,4.175,0,0,1,.009-.819c.181-.868-.4-1.509-.615-2.262-.124-.443-.2-.9-.288-1.354-.013-.062.018-.19.053-.2,1.027-.274.474-1.107.58-1.691a6.912,6.912,0,0,0,.013-1.217c-.354-.044-.659-.08-1.022-.124v-2.6h.832c7.874,0,15.744-.009,23.618.013a.86.86,0,0,0,1-.752c.4-1.438.894-2.855,1.319-4.289.128-.434.31-.637.81-.629,1.54.035,3.085.013,4.709.013Z" transform="translate(-50.727 0.001)" fill="#fff"/><path d="M196.665,56.842v1.1c-.332.04-.615.071-.9.1.111,1.341.181,1.4,1.7,1.531v1.08c-.283.04-.567.084-.845.124.106,1.323.19,1.408,1.585,1.5.013.336.031.686.049,1.089-.305.044-.558.08-.859.12.089.385.168.735.266,1.164H173.6c.212-1.328.416-2.629.624-3.93.385-2.4.788-4.793,1.151-7.2.071-.456.23-.606.695-.606q8.717.02,17.439,0a.626.626,0,0,1,.721.536c.23.85.553,1.682.761,2.536.155.637.456.925,1.115.81a2.515,2.515,0,0,1,.549.04ZM177.964,58v1.474H179.4V58.037c-.195-.018-.336-.035-.478-.04-.288,0-.58,0-.956,0Zm13.088,1.492c.195-1.558.035-1.708-1.43-1.381v1.381Zm-1.421-4.165v1.43h1.443v-1.43Zm-5.838,4.152h1.421V58.063h-1.421Zm-5.82,1.288V62.2h1.43V60.763Zm13.088,1.461V60.768H189.64v1.456ZM179.4,56.766V55.332h-1.43v1.434Zm4.4-.009h1.425v-1.43h-1.425Zm-.009,5.431h1.416V60.794H183.8Z" transform="translate(-96.767 -29.497)" fill="#fff"/><path d="M170.54,86.474V81.9c.252-.018.487-.049.721-.049q12.648,0,25.3-.013a.852.852,0,0,1,.969.642c.474,1.315,1.014,2.6,1.567,3.992H170.54Z" transform="translate(-95.061 -45.616)" fill="#fff"/><path d="M102.99,60.723v-4.6h16.226v4.6Z" transform="translate(-57.41 -31.28)" fill="#fff"/><path d="M102.99,73.653v-4.6h16.231v4.6Z" transform="translate(-57.41 -38.487)" fill="#fff"/><path d="M63.91,86.621V81.96H80.194c0,1.461.013,2.9-.027,4.333,0,.115-.381.31-.589.314-1.593.027-3.182.013-4.776.013H63.91Z" transform="translate(-35.627 -45.683)" fill="#fff"/><path d="M119.248,81.98v4.59H103V81.98Z" transform="translate(-57.415 -45.694)" fill="#fff"/><path d="M80.149,56.12v4.612H63.91V56.12Z" transform="translate(-35.627 -31.28)" fill="#fff"/><path d="M63.8,69.02h16.27v4.643c-.266.013-.5.031-.739.031-4.9,0-9.8-.013-14.7.018-.713,0-.863-.23-.841-.876.044-1.244.013-2.492.013-3.815Z" transform="translate(-35.558 -38.471)" fill="#fff"/><path d="M41.289,35.6H44.44c.053-.929.106-1.788.155-2.651h.168c.022.425.04.854.066,1.279.093,1.647-.133,1.346,1.474,1.377.558.009,1.12,0,1.748,0A3.17,3.17,0,0,1,46.33,38.54a1.075,1.075,0,0,0-.637,1.146c.018,4.811.009,9.627.009,14.438v.859H43.644v-.921c0-4.763-.009-9.525.013-14.292a1.193,1.193,0,0,0-.7-1.261,3.2,3.2,0,0,1-1.678-2.9Z" transform="translate(-23.013 -18.366)" fill="#fff"/></g></g></svg>