<?xml version="1.0" encoding="UTF-8"?>
<svg id="Layer_2" data-name="Layer 2" xmlns="http://www.w3.org/2000/svg" viewBox="0 0 96.8 72.47">
  <defs>
    <style>
      .cls-1 {
        fill: #90d4f8;
        stroke-width: 0px;
      }
    </style>
  </defs>
  <g id="Layer_1-2" data-name="Layer 1">
    <path class="cls-1" d="M0,72.47V0h96.8v72.47H0ZM11.71,6.34c.49.73.64,1.04.86,1.27,10.64,10.82,21.28,21.66,31.95,32.45,2.99,3.02,5.11,2.93,8.22-.18,10.4-10.42,20.79-20.85,31.17-31.29.59-.59,1.05-1.31,1.79-2.25H11.71ZM37.1,42.3c-8.48,7.83-16.87,15.57-25.56,23.59h73.22c.17-.28.34-.56.51-.83-8.28-7.72-16.56-15.44-24.82-23.14-7.5,8.27-14.03,10.88-23.35.38ZM6.7,59.64c8.03-7.62,16.25-15.42,24.29-23.04C22.6,28.42,14.47,20.51,6.7,12.95v46.7ZM90.03,12.85c-7.96,7.74-15.98,15.54-24.41,23.73,8.32,7.85,16.52,15.57,24.41,23.01V12.85Z"/>
  </g>
</svg>