<?xml version="1.0" encoding="UTF-8"?>
<svg id="Layer_2" data-name="Layer 2" xmlns="http://www.w3.org/2000/svg" viewBox="0 0 61.11 91.35">
  <defs>
    <style>
      .cls-1 {
        fill: #90d4f8;
        stroke-width: 0px;
      }
    </style>
  </defs>
  <g id="Layer_1-2" data-name="Layer 1">
    <path class="cls-1" d="M29.72,91.35c-.8-1.21-1.58-2.37-2.35-3.53-3.12-4.73-6.11-9.54-9.01-14.41-3.31-5.57-6.45-11.23-9.32-17.04-2.23-4.5-4.3-9.06-6-13.79-1.1-3.05-2.04-6.14-2.61-9.34-1.07-6.02-.15-11.75,2.66-17.17,2.41-4.64,5.89-8.3,10.27-11.11,3.47-2.23,7.25-3.69,11.31-4.43C27.69,0,30.72-.15,33.76.17c7.27.76,13.6,3.6,18.85,8.72,3.69,3.59,6.24,7.88,7.57,12.86.78,2.9,1.06,5.85.87,8.84-.18,2.8-.71,5.54-1.43,8.25-.99,3.76-2.36,7.38-3.91,10.94-1.77,4.06-3.77,8-5.93,11.86-2.17,3.89-4.49,7.69-6.92,11.42-3.13,4.81-6.42,9.5-9.87,14.08-1,1.32-2.02,2.62-3.04,3.93-.07.09-.14.17-.24.28ZM30.55,11.94c-10.41.03-18.7,8.36-18.66,18.81.04,10.3,8.52,18.65,18.89,18.53,9.99-.11,18.4-8.18,18.44-18.56.05-10.76-8.66-18.81-18.67-18.78Z"/>
  </g>
</svg>