<?xml version="1.0" encoding="UTF-8"?>
<svg id="Layer_2" data-name="Layer 2" xmlns="http://www.w3.org/2000/svg" viewBox="0 0 41 72.33">
  <defs>
    <style>
      .cls-1 {
        fill: #90d4f8;
        stroke-width: 0px;
      }
    </style>
  </defs>
  <g id="Layer_1-2" data-name="Layer 1">
    <path class="cls-1" d="M36.62,0c1.27.4,2.45.93,3.28,2.06.63.86,1,1.8,1.09,2.86.02.21.01.42.01.64,0,20.41,0,40.81,0,61.22,0,2.28-.93,4.01-3,5.01-.67.33-1.48.52-2.23.52-10.17.03-20.34.03-30.5.02-2.97,0-5.22-2.32-5.22-5.34-.02-5.7,0-11.39,0-17.09,0-14.45.04-28.9-.03-43.36C-.02,3.32,1.03.96,4.41,0h32.21ZM37.02,8.95H4.02v46.61h33V8.95ZM20.59,3.23c-2.4,0-4.8,0-7.19,0-.74,0-1.06.39-1.06,1.23,0,.84.33,1.24,1.07,1.24,4.75,0,9.5,0,14.25,0,.74,0,1.09-.41,1.06-1.25-.04-.9-.35-1.26-1.06-1.25-2.35.05-4.7.02-7.05.02ZM20.51,67.11c1.84,0,3.37-1.54,3.35-3.37-.03-1.84-1.5-3.29-3.33-3.29-1.86,0-3.38,1.51-3.35,3.35.03,1.82,1.52,3.31,3.33,3.31Z"/>
  </g>
</svg>