<svg xmlns="http://www.w3.org/2000/svg" width="21.022" height="20.84" viewBox="0 0 21.022 20.84"><g transform="translate(0.1 1268.938)"><path d="M9.87-1268.923a8.006,8.006,0,0,0-.952.094l-.6.084-.644.174a7.2,7.2,0,0,0-1.264.427,6.838,6.838,0,0,0-1.187.576,7.882,7.882,0,0,0-1.108.727,6.794,6.794,0,0,0-1,.847,7.45,7.45,0,0,0-.885.979,7.033,7.033,0,0,0-.775,1.1,7.025,7.025,0,0,0-.617,1.174,6.454,6.454,0,0,0-.4,1.026c-.071.23-.156.511-.19.624a8.7,8.7,0,0,0-.228,1.158,5.875,5.875,0,0,0-.092,1.051l-.026.657.067.655c.036.361.074.686.082.723s.079.322.154.634l.141.567.246.616c.179.448.325.775.53,1.2l.286.583.486.005a4.344,4.344,0,0,0,.488-.01c0-.007-.123-.253-.273-.547-.164-.322-.378-.775-.539-1.148l-.268-.616-.174-.632-.172-.632-.064-.649-.066-.649.038-.673.038-.673.123-.645.125-.644.213-.639a7,7,0,0,1,.507-1.243,6.877,6.877,0,0,1,.647-1.148,6.42,6.42,0,0,1,.795-1.043l.438-.5.5-.429.5-.43.562-.356.563-.358.609-.274.611-.276.64-.192.64-.192.64-.1.64-.1.69-.007.69-.008.558.076.668.092c.061.01.4.1.752.2l.642.182.614.269.614.269.571.358.571.356.5.422.5.42.443.5a6.655,6.655,0,0,1,.813,1.048l.371.55.292.6.291.6.212.634.212.634.123.657.122.657.033.665.033.665-.072.665a4.738,4.738,0,0,1-.146.936c-.039.149-.115.425-.166.616a5.874,5.874,0,0,1-.348.953c-.169.4-.355.8-.548,1.194-.163.323-.294.591-.294.6s.235.008.522.008h.521l.284-.629c.251-.558.373-.859.677-1.662.054-.14.135-.43.236-.838l.154-.624.059-.641.059-.641-.034-.649-.034-.649-.13-.673c-.076-.391-.153-.746-.186-.846s-.122-.383-.205-.64a6.789,6.789,0,0,0-.43-1.076,7.539,7.539,0,0,0-.636-1.182,7.956,7.956,0,0,0-.772-1.1,7.461,7.461,0,0,0-.9-1,6.712,6.712,0,0,0-1.005-.862,6.881,6.881,0,0,0-1.107-.718l-.581-.325-.634-.243-.634-.243-.657-.158-.657-.158-.657-.075A9.293,9.293,0,0,0,9.87-1268.923Z" transform="translate(0 0)" fill="#fff"/><path d="M124.385-1171.406q-.017.936-.059,3.33c-.008.519-.025,1.355-.033,1.856s-.023,1.337-.033,1.856c-.028,1.549-.048,2.729-.066,3.67-.008.488-.023,1.375-.033,1.971s-.021,1.174-.026,1.286l-.01.2-4.063,0c-2.235,0-4.063,0-4.063,0s.274.35.663.823a7.548,7.548,0,0,0,.9.961l.488.461.54.379a6.628,6.628,0,0,0,1.131.685,7.147,7.147,0,0,0,1.2.529l.608.225.64.146.64.148.665.066.665.066.672-.018.67-.018.652-.1.65-.1.632-.174.632-.174.616-.258.616-.258.567-.337.567-.337.484-.392a17.074,17.074,0,0,0,1.879-1.806c.255-.279.463-.512.466-.519s-1.839-.01-4.089-.01h-4.094l0-.657,0-.657,2.984-.573c1.642-.315,3.179-.611,3.416-.655l.429-.084-.407-.419a7.606,7.606,0,0,1-.8-.936,7.2,7.2,0,0,1-.724-1.084c-.217-.374-.42-.752-.594-1.11a8.636,8.636,0,0,1-.517-1.182c-.1-.271-.2-.534-.222-.583s-.108-.386-.2-.747l-.163-.657-.074-.624a15.666,15.666,0,0,1-.113-2.361c0-.5,0-.915,0-.915s-.714.333-1.578.741-1.585.744-1.6.749a7.766,7.766,0,0,1-.064-1.678c-.01-.47-.021-.959-.026-1.089l-.01-.233H124.4Z" transform="translate(-114.193 -95.347)" fill="#fff"/><path d="M239.559-1036c-.01.008-.167.115-.353.235s-.565.381-.846.58a8.221,8.221,0,0,0-1,.8l-.488.435-.424.509a7.709,7.709,0,0,0-.78,1.059,10.512,10.512,0,0,0-.659,1.141c-.166.325-.337.68-.378.788s-.148.389-.238.624a6.436,6.436,0,0,0-.32,1.076l-.158.649-.061.624-.059.624.008.747c.007.5.02.9.043,1.215.018.258.034.514.034.57a.224.224,0,0,0,.013.1c.007,0,.892-.425,1.966-.944l1.954-.944,0-.054c0-.028-.054-.292-.12-.586a10.868,10.868,0,0,1-.228-1.347,6.769,6.769,0,0,1-.074-1.13l-.01-.647.074-.667a7.738,7.738,0,0,1,.225-1.325,6.558,6.558,0,0,1,.345-1.191c.107-.294.207-.567.222-.608s.168-.34.34-.665c.24-.457.388-.711.647-1.117.184-.289.343-.535.351-.547S239.582-1036.02,239.559-1036Z" transform="translate(-230.059 -229.102)" fill="#fff"/></g></svg>