<svg xmlns="http://www.w3.org/2000/svg" width="61.193" height="61" viewBox="0 0 61.193 61"><g transform="translate(0.003 0.001)"><g transform="translate(-0.003 -0.001)"><path d="M9.512,36.633A32.3,32.3,0,0,1,2.337,24.556,52.187,52.187,0,0,1,.011,12.319,2.628,2.628,0,0,1,1.632,9.495Q9.811,5.047,17.9.444a2.569,2.569,0,0,1,2.84-.033q8.22,4.633,16.5,9.164a2.6,2.6,0,0,1,1.439,2.692,43.018,43.018,0,0,1-1.8,11.293c-.242.807-.5,1.61-.84,2.723,3.341.264,6.5.072,9.969.125v-5.8c2.7-.592,5.119-.233,7.815-.28.1,2.033.182,3.861.271,5.755l1.966.848v9.544l5.126.355c-.815,4.86-2.683,9.152-3.646,14.309,1.167-1,1.876-1.615,2.676-2.3.3.244.694.4.771.656.354,1.162.153,9.652-.2,11.121-1.928.472-57.939.537-60.471.048a3.037,3.037,0,0,1-.27-.879c-.029-3.064-.062-6.129-.021-9.192.021-1.514.7-1.983,2.118-1.521A12.308,12.308,0,0,1,3.956,50c.64.335,1.282.666,2.474,1.286-.4-1.114-.536-1.652-.776-2.137-1.578-3.2-3.185-6.39-4.771-9.588C-.461,36.85-.33,36.652,2.8,36.64c2.033-.009,4.065,0,6.711,0Zm-1.355,13.2c2.3-1.3,4.3-1.221,6.179.273a2.862,2.862,0,0,0,3.935-.036,4.7,4.7,0,0,1,6.311.058,2.886,2.886,0,0,0,3.938-.076,4.586,4.586,0,0,1,6.095-.041,3.024,3.024,0,0,0,4.158.026,4.569,4.569,0,0,1,6.093-.007,3.024,3.024,0,0,0,4.158-.01,4.535,4.535,0,0,1,5.679-.271,5.383,5.383,0,0,0,.924.338l3.281-11.429H41.665V44.2c-2.778.658-10.079.563-12.1-.191V38.7c-4.064-.424-24.895-.285-26.885.191,1.8,3.593,3.571,7.149,5.47,10.948ZM7.362,14.365c.532,5.487,1.912,10.508,5.154,14.85a17.178,17.178,0,0,0,3.633,3.526c2.536,1.847,3.31,1.713,5.959-.014a2.772,2.772,0,0,0,1.44-2.719,34.376,34.376,0,0,1,.194-3.6c1.071,0,1.835-.065,2.584.014a2.267,2.267,0,0,0,2.563-1.567A26.321,26.321,0,0,0,31.382,14.4c-3.722-2.064-7.439-4.1-11.13-6.189a1.723,1.723,0,0,0-1.894.062c-3.557,1.99-7.128,3.952-11,6.093Zm46.66,22.285V28.525c-3.7-.522-26.811-.354-28.636.22.046,2.558-.11,5.155.084,7.77l6.06.294v5.82h8.2c.117-2.015.228-3.907.349-5.976H54.021Zm-35.429-.062c-.156-.366-.168-.484-.227-.515-.3-.16-.608-.307-.92-.439A15.671,15.671,0,0,1,10.516,29.8c-3.142-4.618-4.445-9.865-5.179-15.3a1.685,1.685,0,0,1,1.1-1.808c3.864-2.144,7.741-4.268,11.6-6.429a2.487,2.487,0,0,1,2.644-.01q5.784,3.24,11.59,6.438a2,2,0,0,1,1.167,2.285,35.239,35.239,0,0,1-2.352,9.617,12.9,12.9,0,0,0-.491,1.66H33.82a36.02,36.02,0,0,0,2.925-14.737c-5.47-3.03-10.836-5.964-16.157-8.982-1.205-.683-2.1-.2-3.071.34q-7.02,3.9-14.036,7.811c-.51.285-.985.632-1.564,1.008A45.239,45.239,0,0,0,4.48,24.91a25.486,25.486,0,0,0,6.474,10.256,4.409,4.409,0,0,0,2.077,1.358,51.862,51.862,0,0,0,5.562.064ZM1.994,58.963h57.28c-.058-.865-.106-1.562-.16-2.354a5.08,5.08,0,0,1-4.821-.738c-1.579-1.3-3.015-1.147-4.592.052a4.326,4.326,0,0,1-5.653-.072,3.176,3.176,0,0,0-4.378-.043,4.433,4.433,0,0,1-5.87.027,3.176,3.176,0,0,0-4.378-.01,4.431,4.431,0,0,1-5.87-.007,3.177,3.177,0,0,0-4.378.024,4.433,4.433,0,0,1-5.87-.041,3.172,3.172,0,0,0-4.378.058,4.486,4.486,0,0,1-5.676.091,8.465,8.465,0,0,0-1.26-.555v3.571Zm57.261-6.433c-1.87.388-3.492.469-4.831-.664-1.641-1.389-3.138-1.274-4.809.017a4.022,4.022,0,0,1-5.209.086c-1.871-1.459-3.427-1.318-5.257.062a3.934,3.934,0,0,1-4.994-.072c-1.744-1.343-3.258-1.437-5.035-.046a4.021,4.021,0,0,1-5.209.029,3.612,3.612,0,0,0-5.037-.012,4.019,4.019,0,0,1-5.209,0,3.6,3.6,0,0,0-5.035.021,4.226,4.226,0,0,1-5.023.139c-.464-.27-.963-.477-1.619-.8-.027.589-.172.987-.038,1.231C3.043,54.5,6.186,55.38,8.03,54.127c2.077-1.411,4.1-1.619,6.11-.05a3.174,3.174,0,0,0,4.376-.069,4.319,4.319,0,0,1,5.65-.048,3.33,3.33,0,0,0,4.6.038,4.289,4.289,0,0,1,5.646-.021,3.324,3.324,0,0,0,4.6.005,4.159,4.159,0,0,1,5.427-.12,3.625,3.625,0,0,0,5.037-.029,4.238,4.238,0,0,1,5.233.012,9.78,9.78,0,0,0,1.521.925c1.547.649,2.494.021,3.027-2.242ZM48.208,22.25a5.633,5.633,0,0,0-.065,3.974h3.835V22.25Z" transform="translate(0.003 0.001)" fill="#fff"/><path d="M83.491,240.337a2.953,2.953,0,1,1-2.829-3.008,2.983,2.983,0,0,1,2.829,3.008Z" transform="translate(-64.264 -196.583)" fill="#fff"/><path d="M128.257,243.214a2.967,2.967,0,0,1-3.02-2.809,2.953,2.953,0,1,1,3.022,2.809Z" transform="translate(-103.734 -196.568)" fill="#fff"/><path d="M86,85.467C82.511,89,79.2,92.353,75.683,95.919c-2-1.7-3.892-3.8-6.1-6.021l4.1-4.156c.853.556,1.538,1,2.421,1.581l5.782-5.643A15.546,15.546,0,0,1,86,85.467ZM76.045,90,73.8,88.31c-.52.6-.973,1.121-1.494,1.722L75.59,93.22c2.7-2.678,5.2-5.152,7.923-7.844l-1.231-1.384c-2.251,2.168-4.179,4.022-6.235,6Z" transform="translate(-57.634 -67.657)" fill="#fff"/></g></g></svg>