<svg xmlns="http://www.w3.org/2000/svg" width="848.388" height="30.665" viewBox="0 0 848.388 30.665"><g transform="translate(-575.806 -9505)"><g transform="translate(-175.194 4048.071)"><g transform="translate(761 5469)"><path d="M48.175,21.094c-6.225,0-12.487-2.248-19.138-6.744-3.615-2.443-4.6-2.432-8.126.1C15,18.69,8.861,20.894,2.665,21a10,10,0,1,1-.349-20C4.4.969,6.67.051,9.251-1.8,19.562-9.2,29.7-9.342,40.237-2.22c6.479,4.379,9.408,4.376,15.668-.021,10.147-7.111,20.5-6.983,30.784.377C90.513.873,93.787,1.524,97.635.312A20.684,20.684,0,0,0,101.6-2.055c10.375-7.112,20.442-7.185,30.227-.424,4.01,2.762,6.213,3.658,8.12,3.3a21.322,21.322,0,0,0,7.381-2.748c11.075-7.216,20.745-7.249,31.359-.108,6.267,4.211,9.126,4.177,15.292-.184,9.8-6.937,20.188-7.009,30.028-.208C227.971.31,230.169,1.19,232.113.817a21.488,21.488,0,0,0,7.409-2.786c11.006-7.176,20.567-7.244,31-.221,4.358,2.929,6.633,3.245,7.963,3.227a10,10,0,0,1,.262,20c-6.371.084-12.533-2.023-19.387-6.63-3.387-2.279-4.265-2.655-8.916.377a41.3,41.3,0,0,1-14.574,5.677c-9.6,1.841-17.132-2.22-23.235-6.435-2.943-2.034-4.139-2.02-7.109.081-12.855,9.093-24.93,9.237-38,.453-3.816-2.568-4.668-2.738-9.277.265a41.152,41.152,0,0,1-14.592,5.647c-9.524,1.8-17.067-2.271-23.189-6.489-2.6-1.795-3.73-2.169-7.256.248a35.743,35.743,0,0,1-9.581,5.16c-9.814,3.09-19.7,1.365-28.582-4.991-3.635-2.6-4.628-2.392-7.658-.268C60.781,18.774,54.5,21.094,48.175,21.094Z" transform="translate(-2.49 -2.499)" fill="#002a62"/></g><g transform="translate(1037.129 5469)"><path d="M48.175,21.094c-6.225,0-12.487-2.248-19.138-6.744-3.615-2.443-4.6-2.432-8.126.1C15,18.69,8.861,20.894,2.665,21a10,10,0,1,1-.349-20C4.4.969,6.67.051,9.251-1.8,19.562-9.2,29.7-9.342,40.237-2.22c6.479,4.379,9.408,4.376,15.668-.021,10.147-7.111,20.5-6.983,30.784.377C90.513.873,93.787,1.524,97.635.312A20.684,20.684,0,0,0,101.6-2.055c10.375-7.112,20.442-7.185,30.227-.424,4.01,2.762,6.213,3.658,8.12,3.3a21.322,21.322,0,0,0,7.381-2.748c11.075-7.216,20.745-7.249,31.359-.108,6.267,4.211,9.126,4.177,15.292-.184,9.8-6.937,20.188-7.009,30.028-.208C227.971.31,230.169,1.19,232.113.817a21.488,21.488,0,0,0,7.409-2.786c11.006-7.176,20.567-7.244,31-.221,4.358,2.929,6.633,3.245,7.963,3.227a10,10,0,0,1,.262,20c-6.371.084-12.533-2.023-19.387-6.63-3.387-2.279-4.265-2.655-8.916.377a41.3,41.3,0,0,1-14.574,5.677c-9.6,1.841-17.132-2.22-23.235-6.435-2.943-2.034-4.139-2.02-7.109.081-12.855,9.093-24.93,9.237-38,.453-3.816-2.568-4.668-2.738-9.277.265a41.152,41.152,0,0,1-14.592,5.647c-9.524,1.8-17.067-2.271-23.189-6.489-2.6-1.795-3.73-2.169-7.256.248a35.743,35.743,0,0,1-9.581,5.16c-9.814,3.09-19.7,1.365-28.582-4.991-3.635-2.6-4.628-2.392-7.658-.268C60.781,18.774,54.5,21.094,48.175,21.094Z" transform="translate(-2.49 -2.499)" fill="#002a62"/></g><g transform="translate(1313.259 5469)"><path d="M48.175,21.094c-6.225,0-12.487-2.248-19.138-6.744-3.615-2.443-4.6-2.432-8.126.1C15,18.69,8.861,20.894,2.665,21a10,10,0,1,1-.349-20C4.4.969,6.67.051,9.251-1.8,19.562-9.2,29.7-9.342,40.237-2.22c6.479,4.379,9.408,4.376,15.668-.021,10.147-7.111,20.5-6.983,30.784.377C90.513.873,93.787,1.524,97.635.312A20.684,20.684,0,0,0,101.6-2.055c10.375-7.112,20.442-7.185,30.227-.424,4.01,2.762,6.213,3.658,8.12,3.3a21.322,21.322,0,0,0,7.381-2.748c11.075-7.216,20.745-7.249,31.359-.108,6.267,4.211,9.126,4.177,15.292-.184,9.8-6.937,20.188-7.009,30.028-.208C227.971.31,230.169,1.19,232.113.817a21.488,21.488,0,0,0,7.409-2.786c11.006-7.176,20.567-7.244,31-.221,4.358,2.929,6.633,3.245,7.963,3.227a10,10,0,0,1,.262,20c-6.371.084-12.533-2.023-19.387-6.63-3.387-2.279-4.265-2.655-8.916.377a41.3,41.3,0,0,1-14.574,5.677c-9.6,1.841-17.132-2.22-23.235-6.435-2.943-2.034-4.139-2.02-7.109.081-12.855,9.093-24.93,9.237-38,.453-3.816-2.568-4.668-2.738-9.277.265a41.152,41.152,0,0,1-14.592,5.647c-9.524,1.8-17.067-2.271-23.189-6.489-2.6-1.795-3.73-2.169-7.256.248a35.743,35.743,0,0,1-9.581,5.16c-9.814,3.09-19.7,1.365-28.582-4.991-3.635-2.6-4.628-2.392-7.658-.268C60.781,18.774,54.5,21.094,48.175,21.094Z" transform="translate(-2.49 -2.499)" fill="#002a62"/></g></g><g transform="translate(-175.194 4037.5)"><g transform="translate(761 5469)"><path d="M48.162,12.57c-4.489,0-9.055-1.673-14.364-5.262-6.577-4.445-11.413-4.381-17.843.236C11.411,10.8,7.015,12.425,2.516,12.5a1.5,1.5,0,0,1-.052-3c3.87-.068,7.71-1.506,11.741-4.4C18,2.38,21.363,1.089,24.781,1.044S31.6,2.2,35.477,4.823c9.465,6.4,16.089,6.37,25.312-.107C64.4,2.183,67.782.967,71.114,1c3.392.033,6.868,1.358,10.628,4.049,5.993,4.289,12.027,5.392,18.446,3.371a24.821,24.821,0,0,0,6.222-3.466l.3-.206c3.547-2.431,6.852-3.647,10.105-3.715C120.17.961,123.5,2.1,126.995,4.515c5.061,3.486,9.469,5.613,14.529,4.658a29.632,29.632,0,0,0,10.448-3.982c4.228-2.755,7.607-4.013,10.958-4.08,3.45-.069,6.949,1.172,11.012,3.905,9.168,6.161,15.929,6.081,24.945-.3,3.464-2.451,6.75-3.665,10.047-3.711,3.361-.047,6.71,1.116,10.24,3.555,5.027,3.472,9.424,5.583,14.54,4.6A29.8,29.8,0,0,0,244.166,5.15a29.706,29.706,0,0,1,5.5-2.912,15.769,15.769,0,0,1,5.313-1.121c3.439-.09,6.871,1.1,10.8,3.745,4.822,3.241,8.9,4.726,12.821,4.675a1.5,1.5,0,1,1,.039,3c-4.566.06-9.182-1.588-14.534-5.185-6.557-4.413-11.175-4.334-18.3.312a32.851,32.851,0,0,1-11.527,4.449c-6.5,1.247-11.922-1.7-16.81-5.08-5.906-4.082-10.944-4.041-16.849.136-5.131,3.63-9.615,5.345-14.112,5.4s-9.022-1.555-14.24-5.061c-6.836-4.6-11.369-4.551-18.658.2a31.87,31.87,0,0,1-11.53,4.416,16.612,16.612,0,0,1-9.074-.868,35.924,35.924,0,0,1-7.715-4.268c-5.774-3.989-10.823-3.918-16.884.238l-.3.205a27.015,27.015,0,0,1-7.02,3.855,22.314,22.314,0,0,1-11.026.73A25.757,25.757,0,0,1,80,7.488c-6.385-4.57-11.287-4.659-17.483-.316-5.215,3.662-9.75,5.377-14.27,5.4Z" transform="translate(-2.49 -2.499)" fill="#fff"/></g><g transform="translate(1037.129 5469)"><path d="M48.162,12.57c-4.489,0-9.055-1.673-14.364-5.262-6.577-4.445-11.413-4.381-17.843.236C11.411,10.8,7.015,12.425,2.516,12.5a1.5,1.5,0,0,1-.052-3c3.87-.068,7.71-1.506,11.741-4.4C18,2.38,21.363,1.089,24.781,1.044S31.6,2.2,35.477,4.823c9.465,6.4,16.089,6.37,25.312-.107C64.4,2.183,67.782.967,71.114,1c3.392.033,6.868,1.358,10.628,4.049,5.993,4.289,12.027,5.392,18.446,3.371a24.821,24.821,0,0,0,6.222-3.466l.3-.206c3.547-2.431,6.852-3.647,10.105-3.715C120.17.961,123.5,2.1,126.995,4.515c5.061,3.486,9.469,5.613,14.529,4.658a29.632,29.632,0,0,0,10.448-3.982c4.228-2.755,7.607-4.013,10.958-4.08,3.45-.069,6.949,1.172,11.012,3.905,9.168,6.161,15.929,6.081,24.945-.3,3.464-2.451,6.75-3.665,10.047-3.711,3.361-.047,6.71,1.116,10.24,3.555,5.027,3.472,9.424,5.583,14.54,4.6A29.8,29.8,0,0,0,244.166,5.15a29.706,29.706,0,0,1,5.5-2.912,15.769,15.769,0,0,1,5.313-1.121c3.439-.09,6.871,1.1,10.8,3.745,4.822,3.241,8.9,4.726,12.821,4.675a1.5,1.5,0,1,1,.039,3c-4.566.06-9.182-1.588-14.534-5.185-6.557-4.413-11.175-4.334-18.3.312a32.851,32.851,0,0,1-11.527,4.449c-6.5,1.247-11.922-1.7-16.81-5.08-5.906-4.082-10.944-4.041-16.849.136-5.131,3.63-9.615,5.345-14.112,5.4s-9.022-1.555-14.24-5.061c-6.836-4.6-11.369-4.551-18.658.2a31.87,31.87,0,0,1-11.53,4.416,16.612,16.612,0,0,1-9.074-.868,35.924,35.924,0,0,1-7.715-4.268c-5.774-3.989-10.823-3.918-16.884.238l-.3.205a27.015,27.015,0,0,1-7.02,3.855,22.314,22.314,0,0,1-11.026.73A25.757,25.757,0,0,1,80,7.488c-6.385-4.57-11.287-4.659-17.483-.316-5.215,3.662-9.75,5.377-14.27,5.4Z" transform="translate(-2.49 -2.499)" fill="#fff"/></g><g transform="translate(1313.259 5469)"><path d="M48.162,12.57c-4.489,0-9.055-1.673-14.364-5.262-6.577-4.445-11.413-4.381-17.843.236C11.411,10.8,7.015,12.425,2.516,12.5a1.5,1.5,0,0,1-.052-3c3.87-.068,7.71-1.506,11.741-4.4C18,2.38,21.363,1.089,24.781,1.044S31.6,2.2,35.477,4.823c9.465,6.4,16.089,6.37,25.312-.107C64.4,2.183,67.782.967,71.114,1c3.392.033,6.868,1.358,10.628,4.049,5.993,4.289,12.027,5.392,18.446,3.371a24.821,24.821,0,0,0,6.222-3.466l.3-.206c3.547-2.431,6.852-3.647,10.105-3.715C120.17.961,123.5,2.1,126.995,4.515c5.061,3.486,9.469,5.613,14.529,4.658a29.632,29.632,0,0,0,10.448-3.982c4.228-2.755,7.607-4.013,10.958-4.08,3.45-.069,6.949,1.172,11.012,3.905,9.168,6.161,15.929,6.081,24.945-.3,3.464-2.451,6.75-3.665,10.047-3.711,3.361-.047,6.71,1.116,10.24,3.555,5.027,3.472,9.424,5.583,14.54,4.6A29.8,29.8,0,0,0,244.166,5.15a29.706,29.706,0,0,1,5.5-2.912,15.769,15.769,0,0,1,5.313-1.121c3.439-.09,6.871,1.1,10.8,3.745,4.822,3.241,8.9,4.726,12.821,4.675a1.5,1.5,0,1,1,.039,3c-4.566.06-9.182-1.588-14.534-5.185-6.557-4.413-11.175-4.334-18.3.312a32.851,32.851,0,0,1-11.527,4.449c-6.5,1.247-11.922-1.7-16.81-5.08-5.906-4.082-10.944-4.041-16.849.136-5.131,3.63-9.615,5.345-14.112,5.4s-9.022-1.555-14.24-5.061c-6.836-4.6-11.369-4.551-18.658.2a31.87,31.87,0,0,1-11.53,4.416,16.612,16.612,0,0,1-9.074-.868,35.924,35.924,0,0,1-7.715-4.268c-5.774-3.989-10.823-3.918-16.884.238l-.3.205a27.015,27.015,0,0,1-7.02,3.855,22.314,22.314,0,0,1-11.026.73A25.757,25.757,0,0,1,80,7.488c-6.385-4.57-11.287-4.659-17.483-.316-5.215,3.662-9.75,5.377-14.27,5.4Z" transform="translate(-2.49 -2.499)" fill="#fff"/></g></g></g></svg>